<?xml version="1.0" encoding="UTF-8" standalone="no"?>
<!-- Created with Inkscape (http://www.inkscape.org/) -->

<svg
   version="1.1"
   id="svg2"
   xml:space="preserve"
   width="232.82668"
   height="164.26666"
   viewBox="0 0 232.82668 164.26666"
   sodipodi:docname="belarus.eps"
   xmlns:inkscape="http://www.inkscape.org/namespaces/inkscape"
   xmlns:sodipodi="http://sodipodi.sourceforge.net/DTD/sodipodi-0.dtd"
   xmlns="http://www.w3.org/2000/svg"
   xmlns:svg="http://www.w3.org/2000/svg"><defs
     id="defs6" /><sodipodi:namedview
     id="namedview4"
     pagecolor="#ffffff"
     bordercolor="#666666"
     borderopacity="1.0"
     inkscape:pageshadow="2"
     inkscape:pageopacity="0.0"
     inkscape:pagecheckerboard="0" /><g
     id="g8"
     inkscape:groupmode="layer"
     inkscape:label="ink_ext_XXXXXX"
     transform="matrix(1.3333333,0,0,-1.3333333,0,164.26667)"><g
       id="g10"
       transform="scale(0.1)"><path
         d="m 641.898,1099.62 -14.945,-14.98 -22.422,-14.98 v -37.46 h 29.899 l 22.422,-7.5 -29.899,-52.442 h -44.844 l -22.421,-7.5 -14.954,-14.985 H 514.84 l -22.422,-14.988 -7.473,-22.472 v -22.477 l -7.472,-14.992 v -22.473 l -22.422,-37.469 -7.477,-22.472 7.477,-22.481 22.422,-14.976 v -22.485 l -22.422,-7.5 -22.422,14.992 -14.953,14.993 -22.422,7.476 -29.899,-14.976 -14.945,-14.985 h -22.422 l -22.422,-7.5 7.469,-37.461 h -22.422 l -29.894,7.5 -14.946,-14.988 -22.421,-7.488 -52.321,7.488 -52.32,-7.488 -52.3204,7.488 7.4766,-29.973 59.7888,-194.8 V 417.793 L 126.188,365.352 88.8125,320.391 43.9688,297.91 6.59766,260.449 29.0195,230.477 73.8672,193.016 66.3906,80.625 l 14.9492,14.9883 29.8942,7.4917 29.899,-7.4917 44.844,22.4847 22.421,14.976 7.477,22.481 22.422,7.492 134.535,22.48 29.898,-7.492 52.321,-7.5 29.894,7.5 44.844,-22.48 52.32,-14.989 h 22.422 29.899 l 22.422,-7.492 22.421,-7.488 29.899,-14.988 V 88.125 l 22.422,-14.9883 52.316,7.4883 7.477,-29.9727 14.945,-14.9765 22.422,14.9765 29.898,7.5 22.422,7.4922 22.422,14.9805 22.422,-14.9805 22.422,-7.4922 29.902,7.4922 14.942,-22.4804 22.426,-14.9805 52.32,52.4414 44.84,-22.4727 7.47,-22.4765 22.43,-14.9922 22.43,7.5 h 29.89 l 52.31,7.4922 h 29.91 l 22.42,-7.4922 14.95,-22.48047 29.89,7.48827 7.47,22.4844 -7.47,44.9492 7.47,29.973 v 22.476 l 14.95,22.481 52.33,52.445 29.89,7.5 h 22.42 l 29.9,14.977 h 59.79 v 0 0 l -14.94,59.945 7.47,22.476 -14.95,22.485 -22.42,7.488 7.48,22.481 -14.95,14.98 7.47,22.481 -7.47,22.48 -37.38,29.973 -7.47,22.468 29.9,7.489 v 22.48 l 22.42,7.5 h 29.9 l 37.36,-29.98 52.33,-7.489 22.42,14.989 44.84,29.961 14.95,14.992 22.43,14.992 -7.48,37.461 h -29.9 l -14.95,14.976 7.48,22.485 -22.42,7.5 -22.42,14.976 -74.75,-7.5 -14.95,22.485 7.48,14.988 -7.48,22.473 -14.94,14.988 -44.85,22.48 -14.95,22.469 -37.37,59.942 -14.95,37.461 -37.36,29.984 -7.48,22.477 7.48,14.984 22.42,14.976 7.47,22.485 v 22.476 l -7.47,14.986 -14.95,14.99 v 22.47 l 7.47,22.48 -7.47,29.98 h -22.42 l -29.91,37.45 -22.42,14.99 -22.42,7.49 -22.42,7.5 -52.32,-7.5 -22.42,-7.49 -22.42,-7.49 -44.85,-14.99 7.48,44.95 -44.85,22.49 -22.42,7.49 -52.32,-7.49 -14.95,22.47 -22.426,7.5 -52.317,-7.5 -7.469,14.99 h -37.375 l -22.418,-7.49 -37.375,-29.97 -7.476,-22.49 -29.899,-37.46 h -29.89 l -52.324,14.99 -14.946,-14.99 -7.476,-14.98 -22.422,-14.99 -29.899,7.5 v 0 z"
         style="fill:none;stroke:#231f20;stroke-width:10;stroke-linecap:butt;stroke-linejoin:miter;stroke-miterlimit:10;stroke-dasharray:none;stroke-opacity:1"
         id="path12" /></g></g></svg>
